<?xml version="1.0" standalone="no"?>
<!DOCTYPE svg PUBLIC "-//W3C//DTD SVG 20010904//EN"
 "http://www.w3.org/TR/2001/REC-SVG-20010904/DTD/svg10.dtd">
<svg version="1.0" xmlns="http://www.w3.org/2000/svg"
 width="515.000000pt" height="515.000000pt" viewBox="0 0 515.000000 515.000000"
 preserveAspectRatio="xMidYMid meet">
<metadata>
Created by potrace 1.14, written by Peter Selinger 2001-2017
</metadata>
<g transform="translate(0.000000,515.000000) scale(0.100000,-0.100000)"
fill="#000000" stroke="none">
<path d="M2528 5102 c-47 -66 -232 -167 -608 -333 -129 -57 -277 -128 -328
-158 -154 -91 -266 -215 -314 -346 -33 -91 -31 -253 4 -355 14 -41 25 -76 24
-77 -1 -1 -33 9 -71 23 -200 73 -411 25 -566 -126 -104 -102 -160 -197 -294
-500 -176 -398 -249 -533 -332 -613 l-39 -39 41 -41 c59 -59 95 -115 168 -263
73 -147 67 -134 181 -392 115 -259 162 -338 266 -442 127 -127 232 -172 397
-171 63 0 102 7 168 29 69 23 85 25 79 13 -43 -105 -48 -128 -48 -246 0 -140
17 -198 90 -301 101 -144 214 -218 577 -379 399 -177 538 -253 606 -330 l30
-35 53 53 c85 85 163 125 748 386 255 114 416 257 478 423 28 76 33 100 33
185 0 77 -13 142 -43 211 -10 24 -18 45 -18 47 0 2 28 -7 63 -19 307 -116 589
26 770 389 19 39 78 169 132 290 148 335 214 460 279 528 42 45 36 85 -23 158
-55 67 -138 231 -261 509 -155 352 -200 431 -315 545 -70 70 -181 136 -250
151 -104 22 -272 7 -349 -31 -44 -22 -46 -19 -25 35 30 80 41 140 40 225 -1
190 -108 359 -309 489 -78 51 -126 74 -402 196 -326 144 -497 237 -559 304
-29 31 -55 33 -73 8z m262 -1038 c152 -22 374 -100 515 -181 256 -148 470
-373 597 -628 70 -139 127 -312 143 -435 3 -25 8 -63 12 -85 3 -22 6 -96 5
-165 -6 -566 -317 -1069 -822 -1332 -83 -43 -300 -121 -370 -132 -264 -43
-453 -38 -683 20 -593 148 -1042 660 -1117 1276 -11 88 -14 282 -6 328 3 14 7
48 11 75 26 214 133 470 278 665 216 290 502 481 856 570 45 11 111 24 145 27
33 3 63 8 66 10 7 7 311 -4 370 -13z"/>
<path d="M2375 3845 c-346 -55 -635 -229 -845 -510 -61 -81 -148 -245 -174
-325 -58 -186 -75 -293 -71 -460 7 -302 109 -572 299 -795 88 -104 136 -144
136 -116 0 5 8 11 18 15 9 3 38 18 63 33 26 16 81 47 123 71 42 24 74 48 70
53 -3 6 -134 73 -290 151 l-285 140 6 52 c4 28 9 66 11 85 2 19 6 46 9 60 2
14 7 53 10 86 3 33 7 69 9 80 2 11 7 43 10 70 3 28 8 66 11 85 3 19 7 53 10
75 15 130 12 124 71 140 30 8 79 22 109 30 31 9 59 14 64 11 4 -3 20 -7 36
-10 16 -3 51 -10 79 -15 28 -6 65 -12 81 -15 17 -3 41 -7 55 -10 14 -3 41 -7
60 -10 284 -43 393 -76 483 -148 19 -16 32 -20 41 -13 95 71 182 107 312 129
49 9 100 18 114 21 13 2 42 7 65 10 22 3 47 8 55 10 8 2 35 7 60 10 25 4 85
14 133 24 79 16 94 16 140 3 139 -37 149 -40 160 -41 5 -1 6 -4 4 -8 -3 -5 -1
-30 3 -58 4 -27 11 -77 15 -110 4 -33 8 -71 10 -85 2 -14 8 -65 15 -115 6 -49
13 -106 16 -125 11 -80 13 -98 20 -157 l6 -61 -291 -144 c-160 -78 -291 -145
-291 -148 0 -3 48 -33 108 -67 59 -35 126 -74 149 -88 l42 -25 43 42 c178 173
300 400 355 661 25 116 24 381 0 497 -111 517 -493 896 -1012 1005 -101 22
-324 26 -430 10z"/>
<path d="M1597 2802 c-9 -2 -17 -13 -18 -25 0 -12 -2 -29 -4 -38 -1 -8 -6 -42
-9 -75 -4 -32 -9 -70 -11 -84 -2 -14 -7 -50 -10 -80 -4 -30 -9 -64 -11 -74 -2
-11 -6 -44 -9 -75 -3 -31 -7 -65 -9 -76 -2 -12 -7 -45 -11 -75 l-7 -55 331
-164 c300 -148 329 -165 312 -177 -19 -14 -133 -81 -273 -162 l-78 -44 0 -43
c0 -72 16 -74 114 -10 47 30 89 55 93 55 5 0 15 -13 25 -29 l16 -29 -138 -92
c-175 -116 -180 -130 -42 -130 l94 0 93 55 c52 30 99 55 104 55 6 0 11 5 11
10 0 6 4 10 9 10 5 0 84 43 177 96 219 126 212 126 389 24 22 -13 65 -36 95
-53 30 -17 67 -38 82 -49 14 -10 28 -18 31 -18 2 0 55 -29 116 -65 l112 -65
95 0 c136 0 131 13 -45 131 l-140 92 20 29 c11 15 23 28 27 28 4 0 45 -25 92
-55 75 -49 86 -53 100 -40 9 8 16 25 14 38 -1 12 -3 29 -3 38 -1 10 -71 58
-186 125 l-185 109 330 165 331 165 -6 70 c-3 39 -8 77 -10 85 -2 8 -7 40 -10
70 -3 30 -8 66 -10 80 -2 14 -7 48 -10 75 -6 53 -9 78 -25 190 -5 39 -10 73
-10 77 0 3 -29 8 -66 10 l-65 3 5 -55 c4 -30 8 -86 11 -125 3 -38 8 -92 10
-120 2 -27 6 -79 9 -115 3 -36 8 -97 11 -136 l7 -72 -109 -55 c-129 -66 -279
-128 -463 -192 -74 -26 -168 -60 -208 -76 -40 -16 -77 -29 -82 -29 -6 0 -10
129 -10 349 l0 349 35 31 c20 17 52 38 73 47 47 20 164 50 222 57 136 16 338
69 440 116 45 20 45 20 10 15 -19 -2 -46 -7 -60 -9 -14 -3 -36 -7 -50 -10 -14
-3 -36 -7 -50 -10 -14 -2 -41 -7 -60 -10 -123 -19 -284 -49 -335 -62 -110 -27
-203 -88 -238 -155 l-14 -28 -27 43 c-57 90 -155 134 -383 171 -204 34 -215
36 -243 41 -14 3 -36 7 -50 10 -14 3 -49 10 -78 16 -30 6 -56 9 -58 6 -8 -8
196 -79 266 -92 8 -2 33 -8 55 -13 22 -6 58 -14 80 -17 191 -31 197 -32 255
-51 55 -19 137 -70 150 -95 6 -10 10 -161 10 -368 l0 -350 -62 29 c-72 32
-172 70 -343 131 -129 45 -324 131 -418 182 l-58 32 5 45 c3 25 8 77 11 115 3
39 8 99 11 135 2 36 7 88 9 115 2 28 7 85 10 128 4 42 3 77 -2 78 -34 3 -91 4
-106 1z"/>
<path d="M1739 2683 c0 -10 -2 -34 -4 -53 -4 -35 -16 -183 -20 -250 -6 -80 -8
-170 -4 -173 7 -6 123 -59 204 -94 44 -19 89 -38 100 -43 11 -5 107 -43 213
-85 106 -41 211 -84 235 -95 35 -18 38 -18 19 -3 -30 24 -308 163 -326 163 -3
0 -33 13 -68 29 -35 16 -121 54 -193 86 -71 32 -135 61 -141 66 -7 6 -9 84 -7
239 2 126 1 230 -2 230 -3 0 -5 -8 -6 -17z"/>
<path d="M3365 2459 l1 -240 -25 -18 c-41 -27 -194 -95 -341 -149 -215 -80
-396 -161 -362 -162 7 0 26 7 42 15 16 8 131 49 257 90 143 47 273 97 349 135
121 60 122 61 119 93 -2 17 -6 80 -9 138 -19 388 -32 429 -31 98z"/>
</g>
</svg>
